<?xml version="1.0" encoding="UTF-8"?>
<svg id="Layer_2" data-name="Layer 2" xmlns="http://www.w3.org/2000/svg" width="1769.56956" height="413.41003" viewBox="0 0 1769.56956 413.41003">
  <defs>
    <style>
      .cls-1 {
        stroke-width: 0px;
      }

      .cls-2, .cls-3, .cls-4, .cls-5 {
        stroke: #000;
        stroke-miterlimit: 10;
      }

      .cls-2, .cls-4 {
        stroke-width: 2px;
      }

      .cls-2, .cls-5 {
        fill: none;
      }

      .cls-3, .cls-4 {
        fill: #fff;
      }

      .cls-3, .cls-5 {
        stroke-width: 2.19499px;
      }
    </style>
  </defs>
  <g id="Layer_2-2" data-name="Layer 2">
    <path class="cls-5" d="m291.82688,264.73002c0-.02-.01-.03-.02-.04v-.01"/>
    <path class="cls-3" d="m694.00689,243.79999l.20001,1.10004h.15997c-.12-.37-.22998-.73004-.35999-1.10004Z"/>
    <path class="cls-3" d="m694.00689,243.79999l.20001,1.10004h.15997c-.12-.37-.22998-.73004-.35999-1.10004Z"/>
    <path class="cls-2" d="m291.82688,264.73002c0-.02-.01-.03-.02-.05"/>
    <path class="cls-2" d="m291.80688,264.68002c-.01-.03-.03-.05-.05-.09"/>
    <path class="cls-4" d="m694.00689,243.79999l.20001,1.10004h.15997c-.12-.37-.22998-.73004-.35999-1.10004Zm0,0l.20001,1.10004h.15997c-.12-.37-.22998-.73004-.35999-1.10004Z"/>
    <path class="cls-4" d="m869.3369,1h-1.65002c.69.94,1.40997,1.87,2.15002,2.78003l-.5-2.78003Z"/>
    <g>
      <path class="cls-4" d="m1553.4619,339.73999c-6.60999-39.59998-34.98999-56.10999-100.31006-69.96997-34.26001-7.26001-39.32996-13.64001-40.72998-21.79004-1.33997-7.69995,4.06006-13.41998,21.66003-13.41998,20.02991,0,32.53992,8.79999,39.53992,31.47003l63.34009-5.28003c-11.93994-47.52997-44.10999-78.33997-111.89001-78.33997-50.17004,0-86.09998,23.76996-78.39001,69.75995,7.11011,42.46002,38.20996,59.41003,101.55005,71.95001,28.66992,5.5,36.35999,9.23999,38,18.71002,1.51001,8.79999-4.18005,14.08002-23.11011,14.08002-21.55994,0-36.81995-8.14001-44.58984-31.47003l-61.55005,17.16998h-.01001c-7.84009-.94-10.39001-5.65997-11.78003-13.69l-10.10999-58.52997c-9.27002-53.69-35.02002-91.97998-116.66003-91.97998-57.87,0-94.01001,27.72998-85.55005,80.53998l68.9801,5.71997c-2.91003-20.69,6.2699-29.92999,26.29993-29.92999,25.31006,0,34.67004,14.75,38.13013,34.77002l1.20996,7.03998c-11.56006-1.97998-23.19006-3.07996-37.93005-3.07996-59.83997,0-97.75,16.87-91.37,60.73999h-105.70996l-9.25-53.64001h100.33997l-11.09998-64.27002h-100.34009l-8.19995-47.5h119.26001l-12.22998-70.88995h-195.58002l36.84003,213.40997,1.58997,9.22998,14.60004,84.55005h250.41998l-.17004-.19c1.86011.09998,3.75.14996,5.67004.14996,37.40002,0,60.53992-12.53998,67.10999-36.96997,8.08008,26.40997,22.72998,34.76996,56.84009,34.76996,13.19995,0,23.16992-.88,33.71997-3.51996l-2.65002-15.33002c19.69006,17.85999,49.18005,21.09003,85.5,21.09003,55.89001,0,95.71997-22.89001,88.60999-65.36005Zm-310.59009,13.39001c-18.26001,0-27.32983-7.91998-29.38989-19.81-2.28003-13.20001,8.23999-19.79999,34.42993-19.79999,9.90002,0,18.23999,1.09998,26.45996,2.85999l3.65015,21.13c-5.56006,9.90002-17.76001,15.62-35.15015,15.62Z"/>
      <path class="cls-4" d="m1707.86181,324.56c-.84985,18.04999-13.11987,25.97003-36.88989,25.97003-22.88,0-38.87-12.33002-47.91003-39.17004h144.56995c-.26001-7.91998-1.1499-14.31-2.20996-20.46997-11.69995-67.77002-59.33997-110.46002-124.46997-110.46002-67.12,0-101.31006,47.97003-89.94995,113.76001,11.54993,66.90002,59.54004,112.89001,129.73999,112.89001,53.25,0,87.38989-25.31,87.81995-75.03998l-60.70007-7.48004Zm-57.25989-88.23999c19.79993,0,36.84998,10.78003,42.59998,35.21002h-76.57007c.88013-24.21002,13.28003-35.21002,33.97009-35.21002Z"/>
      <path class="cls-4" d="m254.60111,295.97498c0,25.75-20.87006,46.61005-46.60004,46.61005s-46.58002-20.86005-46.58002-46.61005h-82.41998l-12.52002-46.77997-33.62994-125.46002-12.58002-46.95996v-.06h141.53998v.42999c25.72998,0,46.59003,20.85999,46.59003,46.58997s-20.86005,46.60004-46.59003,46.60004c-17.17999,0-32.17999-9.30005-40.25-23.14001q-.01001,0-.01001-.01001c-4.01996-6.89001-6.32001-14.90002-6.32001-23.45001h-33.67999l27.76001,103.66003,1.40002,5.22998,4.38,16.34003h92.90997v.42999c25.72998,0,46.60004,20.85999,46.60004,46.57996Z"/>
      <path class="cls-4" d="m952.22191,311.32001l-36.84003-213.40997-5.47998-31.73004c15.79999,7.23999,33.37,11.27002,51.88,11.27002,6.76996,0,13.40997-.53998,19.87994-1.58002l-7.77997-42.83997c-3.95001.58997-7.98999.89996-12.09998.89996-25.51001,0-48.28003-11.76001-63.17999-30.14996-.74005-.91003-1.46002-1.84003-2.15002-2.78003h-67.78003l36.56006,211.78003c-15.75-19.81-37.37006-30.37-66.42004-30.37-40.71997,0-68.25,22.81995-76.03998,61.38-11.78998-36.10004-39.16998-61.38-87.14001-61.38-37.84998,0-56.64996,18.47998-60.51001,49.72998l-8.77997-45.77002h-60.29004l27.77002,160.84003c-.70001.01001-1.40002.01996-2.09998.01996-10.34003,0-13.38-4.84998-14.92999-13.87l-10.11005-58.52997c-9.26996-53.69-35.01996-91.97998-116.65997-91.97998-44.78003,0-76.54999,16.59998-84.70001,48.57996-11.71002-17.56-28.07001-31.75-47.32001-40.82001,13.26001-18.88995,21.04999-41.91998,21.04999-66.75995,0-26.56-8.89996-51.07001-23.88995-70.66003-21.27002-27.82001-54.81-45.77002-92.54004-45.77002H13.8919l-12.58002.01001,12.58002,45.73999v.02002h148.72998c39.03003,0,70.66003,31.63,70.66003,70.66003,0,22.64996-10.66003,42.72998-27.15002,55.72998-.02002-.02002-.03998,0-.03998,0h-.04004c-3.25995,2.54999-6.76996,4.83002-10.45996,6.75l-33.78003-.10004h-1.21997l-28.59003-.09998,7.67999,28.63c.01001.15002.05005.28003.09003.40002.09998.46997.21997.94.35999,1.37.03998.10999.06.20996.10004.32001l2.75995,10.31995,1.40002,5.24005.15997.56,15.68005.06h1.57996l14.37.07001,64.81.20996c22.63,11.73999,38.06,35.41003,38.06,62.66003,0,37.81-29.66998,68.66998-67.01996,70.56-1.21002.07001-2.41003.09998-3.63.09998-1.23004,0-2.42999-.02997-3.63-.09998h-94.20001l-12.32001-.01001,12.32001,45.89001h97.83002c37.77997,0,71.33997-18,92.60999-45.88,3.48999-4.57001,6.65002-9.41003,9.45001-14.48999l1.32001-3.15002,1.06,3.15002c10.26996,32.92999,39.37,57.45996,83.07996,57.45996,37.41003,0,60.55005-12.53998,67.12006-36.96997,8.06995,26.40997,22.40997,32.57001,56.50995,32.57001,10.70001,0,19.18005,1.07996,27.74005,0h66.5l-17.59003-101.88c-6.67999-38.73004,5.83002-55.46002,29.82001-55.46002,20.23999,0,30.79999,11.45001,34.96997,35.65002l21.02002,121.69h69.97003l-9.36005-54.17004c.01001,0,.01001.01001.01001.01001,21.31,36.65002,55.82001,58.12,95.32001,58.12,35.87,0,58.07001-17.45001,63.67999-47.38l8.69,43.42004h58.09003l-14.60004-84.55005-1.58997-9.22998Zm-627.39001-15.46997c-.01001-10.78003-1.5-21.25-4.26001-31.16003l52.87,4.41998c-2.90997-20.69,6.28003-29.92999,26.29999-29.92999,25.31,0,34.67999,14.75,38.13,34.77002l1.22003,7.03998c-11.57001-1.97998-23.20001-3.07996-37.95001-3.07996-33.76001,0-60.53003,5.37-76.31,17.94Zm89.63,61.71997c-18.27002,0-27.33002-7.91998-29.39001-19.81-2.27997-13.20001,8.25-19.79999,34.42999-19.79999,9.91003,0,18.23999,1.09998,26.46002,2.85999l3.64996,21.13c-5.54999,9.90002-17.76996,15.62-35.14996,15.62Zm308.51001-112.66998l-.20001-1.10004c.13.37.23999.73004.35999,1.10004h-.15997Zm121.72998,102.54999c-26.40997,0-46.03998-19.37-51.65997-51.94-5.55005-32.12,7.53998-50.60999,33.94995-50.60999,26.62,0,48.82001,18.92999,54.29004,50.60999,5.51001,31.90997-9.73999,51.94-36.58002,51.94Z"/>
    </g>
    <path class="cls-1" d="m869.3369,1h-1.65002c.69.94,1.40997,1.87,2.15002,2.78003l-.5-2.78003h0Z"/>
    <path class="cls-1" d="m869.3369,1h-1.65002c.69.94,1.40997,1.87,2.15002,2.78003l-.5-2.78003h0Z"/>
  </g>
</svg>