<?xml version="1.0" encoding="UTF-8"?>
<svg id="Layer_1" data-name="Layer 1" xmlns="http://www.w3.org/2000/svg" width="125.66582" height="156.96278" viewBox="0 0 125.66582 156.96278">
  <defs>
    <style>
      .cls-1 {
        fill: #fff;
      }

      .cls-1, .cls-2 {
        stroke: #000;
        stroke-miterlimit: 10;
        stroke-width: .77135px;
      }

      .cls-2 {
        fill: none;
      }
    </style>
  </defs>
  <path class="cls-1" d="m98.19407,111.67273c0,9.93118-8.0491,17.97642-17.97256,17.97642s-17.96483-8.04524-17.96483-17.97642h-31.78748l-4.82868-18.04195-12.97029-48.38703-4.85182-18.11137v-.02314h54.58869v.16584c9.92346,0,17.9687,8.04521,17.9687,17.96867s-8.04524,17.97256-17.9687,17.97256c-6.62593,0-12.41108-3.58681-15.52349-8.92457q-.00386,0-.00386-.00386c-1.5504-2.65732-2.43748-5.74659-2.43748-9.04413h-12.98959l10.70639,39.97928.53996,2.01708,1.68927,6.30197h35.83323v.16584c9.92346,0,17.97256,8.04521,17.97256,17.96481Z"/>
  <path class="cls-2" d="m46.88461,54.29058q-.00761,0,0-.00761"/>
  <line class="cls-2" x1="81.77579" y1="138.8861" x2="78.97578" y2="138.8861"/>
  <path class="cls-2" d="m67.94789,87.42264c-.01522.00761-.03805.01522-.05327.02283"/>
  <path class="cls-1" d="m125.28015,111.67273c0,10.22816-3.42481,19.66568-9.18683,27.21336-8.20335,10.75267-21.14667,17.69102-35.71753,17.69102h-37.73077l-4.75154-17.69486,4.75154.00384h36.33076c.46282.02316.92561.03858,1.40001.03858.47051,0,.93333-.01542,1.40001-.03858,14.40502-.72891,25.84805-12.63092,25.84805-27.21336,0-10.51353-5.95099-19.63866-14.67886-24.1665l-24.99572-.08484-5.54217-.02316h-.60938l-6.04741-.02314-.0617-.21982-.53996-2.01711-1.06447-3.98402c-.01542-.03858-.02314-.07714-.03856-.12342-.054-.16584-.10028-.34326-.13884-.52454-.01544-.04628-.03086-.10026-.03472-.15426l-2.962-11.04193,11.02651.03856h.47051l13.02818.03858c1.42315-.74435,2.77685-1.61985,4.03416-2.60332h.01544s.0077-.00772.01542,0c6.35981-5.0138,10.47114-12.7582,10.47114-21.49379,0-15.05296-12.19896-27.25192-27.25194-27.25192H5.35778v-.00772L.50596.38954l4.85182-.00386h57.36171c14.5516,0,27.4872,6.9229,35.69055,17.65244,5.78129,7.5554,9.2138,17.00834,9.2138,27.25192,0,9.58022-3.00441,18.45851-8.11849,25.74779,15.23424,7.17744,25.77479,22.67779,25.77479,40.63491Z"/>
  <line class="cls-2" x1="62.40812" y1="69.34992" x2="62.40812" y2="69.31948"/>
  <line class="cls-2" x1="62.40812" y1="87.43785" x2="62.40812" y2="87.39981"/>
  <line class="cls-2" x1="62.40812" y1="93.70814" x2="62.40812" y2="93.54073"/>
  <path class="cls-2" d="m61.82087,87.39824c.19284.02314.38953.03085.58623.03857v-.03857"/>
  <path class="cls-2" d="m62.7195,69.31c-.10413,0-.21212,0-.3124.00771-.1427.00771-.29697.01543-.43196.03085"/>
  <line class="cls-2" x1="55.75032" y1="87.3751" x2="55.25665" y2="87.3751"/>
  <line class="cls-2" x1="67.89462" y1="87.44546" x2="62.72011" y2="87.44546"/>
  <line class="cls-2" x1="5.14951" y1=".38954" x2=".50596" y2=".38954"/>
</svg>