<?xml version="1.0" encoding="UTF-8"?>
<svg xmlns="http://www.w3.org/2000/svg" width="500" height="500" viewBox="0 0 500 500">
  <defs>
    <style>
      .cls-1 {
        fill: none;
      }

      .cls-1, .cls-2 {
        stroke: #000;
        stroke-miterlimit: 10;
        stroke-width: 2px;
      }

      .cls-3 {
        fill: #00b4d8;
      }

      .cls-2 {
        fill: #fff;
      }
    </style>
  </defs>
  <g id="Layer_2" data-name="Layer 2">
    <rect class="cls-3" width="500" height="500"/>
  </g>
  <g id="Layer_1" data-name="Layer 1">
    <path class="cls-2" d="m341.53003,339.26996c0,25.75-20.87006,46.61005-46.60004,46.61005s-46.58002-20.86005-46.58002-46.61005h-82.41998l-12.52002-46.77997-33.62994-125.46002-12.58002-46.95996v-.06h141.53998v.42999c25.72998,0,46.59003,20.85999,46.59003,46.58997s-20.86005,46.60004-46.59003,46.60004c-17.17999,0-32.17999-9.30005-40.25-23.14001q-.01001,0-.01001-.01001c-4.01996-6.89001-6.32001-14.90002-6.32001-23.45001h-33.67999l27.76001,103.66003,1.40002,5.22998,4.38,16.34003h92.90997v.42999c25.72998,0,46.60004,20.85999,46.60004,46.57996Z"/>
    <path class="cls-1" d="m208.49259,190.487q-.01973,0,0-.01973"/>
    <line class="cls-1" x1="298.96" y1="409.83" x2="291.7" y2="409.83"/>
    <path class="cls-1" d="m263.10639,276.39324c-.03946.01973-.09865.03946-.13811.05919"/>
    <path class="cls-2" d="m411.76001,339.26996c0,26.52002-8.88,50.99005-23.82001,70.56-21.27002,27.88-54.83002,45.87006-92.60999,45.87006h-97.83002l-12.32001-45.88,12.32001.00995h94.20001c1.20001.06006,2.39996.10004,3.63.10004,1.21997,0,2.41998-.03998,3.63-.10004,37.34998-1.88995,67.01996-32.75,67.01996-70.56,0-27.25995-15.42999-50.91998-38.06-62.65997l-64.81-.21997-14.37-.06006h-1.58002l-15.67999-.06-.15997-.56995-1.40002-5.23004-2.76001-10.32996c-.03998-.10004-.06-.20001-.09998-.32001-.14001-.42999-.26001-.89001-.35999-1.36005-.04004-.12-.08002-.25995-.09003-.39996l-7.67999-28.63,28.59003.09998h1.21997l33.78003.10004c3.69-1.92999,7.19995-4.20001,10.45996-6.75h.04004s.01996-.02002.03998,0c16.48999-13,27.15002-33.08002,27.15002-55.73004,0-39.02997-31.63-70.65997-70.66003-70.65997H100.82001v-.02002l-12.58002-45.73999,12.58002-.01001h148.72998c37.73004,0,71.27002,17.95001,92.54004,45.77002,14.98999,19.58997,23.88995,44.09998,23.88995,70.65997,0,24.84003-7.78998,47.86005-21.04999,66.76001,39.5,18.60999,66.83002,58.79999,66.83002,105.35999Z"/>
    <line class="cls-1" x1="248.74265" y1="229.5335" x2="248.74265" y2="229.45457"/>
    <line class="cls-1" x1="248.74265" y1="276.4327" x2="248.74265" y2="276.33405"/>
    <line class="cls-1" x1="248.74265" y1="292.69057" x2="248.74265" y2="292.2565"/>
    <path class="cls-1" d="m247.22,276.33c.5.06,1.01.08,1.52.1v-.1"/>
    <path class="cls-1" d="m249.55,229.43c-.27,0-.55,0-.81.02-.37.02-.77.04-1.12.08"/>
    <line class="cls-1" x1="231.48" y1="276.27" x2="230.2" y2="276.27"/>
    <line class="cls-1" x1="262.96828" y1="276.45243" x2="249.55159" y2="276.45243"/>
    <line class="cls-1" x1="100.28" y1="50.73" x2="88.24" y2="50.73"/>
  </g>
</svg>