<?xml version="1.0" encoding="utf-8"?>
<!-- Generator: Adobe Illustrator 27.5.0, SVG Export Plug-In . SVG Version: 6.00 Build 0)  -->
<svg version="1.1" id="Layer_1" xmlns="http://www.w3.org/2000/svg" xmlns:xlink="http://www.w3.org/1999/xlink" x="0px" y="0px"
	 viewBox="0 0 1920 1080" style="enable-background:new 0 0 1920 1080;" xml:space="preserve">
<style type="text/css">
	.st0{fill:#FFFFFF;stroke:#000000;stroke-width:2.195;stroke-miterlimit:10;}
	.st1{fill:#FFFFFF;stroke:#000000;stroke-width:2;stroke-miterlimit:10;}
	.st2{fill:#FFFFFF;}
</style>
<g id="Layer_2_00000044867227086963035190000013756690786352939673_">
	<path class="st0" d="M366.9,595.1C366.9,595.1,366.9,595,366.9,595.1L366.9,595.1"/>
	<path class="st0" d="M769.1,574.1l0.2,1.1h0.2C769.3,574.9,769.2,574.5,769.1,574.1z"/>
	<path class="st0" d="M769.1,574.1l0.2,1.1h0.2C769.3,574.9,769.2,574.5,769.1,574.1z"/>
	<path class="st1" d="M366.9,595.1C366.9,595.1,366.9,595,366.9,595.1"/>
	<path class="st1" d="M366.9,595C366.9,595,366.8,595,366.9,595"/>
	<path class="st1" d="M769.1,574.1l0.2,1.1h0.2C769.3,574.9,769.2,574.5,769.1,574.1z M769.1,574.1l0.2,1.1h0.2
		C769.3,574.9,769.2,574.5,769.1,574.1z"/>
	<path class="st1" d="M944.4,331.3h-1.7c0.7,0.9,1.4,1.9,2.2,2.8L944.4,331.3z"/>
	<g>
		<path class="st1" d="M1628.5,670.1c-6.6-39.6-35-56.1-100.3-70c-34.3-7.3-39.3-13.6-40.7-21.8c-1.3-7.7,4.1-13.4,21.7-13.4
			c20,0,32.5,8.8,39.5,31.5l63.3-5.3c-11.9-47.5-44.1-78.3-111.9-78.3c-50.2,0-86.1,23.8-78.4,69.8c7.1,42.5,38.2,59.4,101.6,72
			c28.7,5.5,36.4,9.2,38,18.7c1.5,8.8-4.2,14.1-23.1,14.1c-21.6,0-36.8-8.1-44.6-31.5L1432,673h0c-7.8-0.9-10.4-5.7-11.8-13.7
			l-10.1-58.5c-9.3-53.7-35-92-116.7-92c-57.9,0-94,27.7-85.6,80.5l69,5.7c-2.9-20.7,6.3-29.9,26.3-29.9c25.3,0,34.7,14.8,38.1,34.8
			l1.2,7c-11.6-2-23.2-3.1-37.9-3.1c-59.8,0-97.8,16.9-91.4,60.7h-105.7l-9.2-53.6h100.3l-11.1-64.3h-100.3l-8.2-47.5h119.3
			l-12.2-70.9H990.4l36.8,213.4l1.6,9.2l14.6,84.6h250.4l-0.2-0.2c1.9,0.1,3.8,0.1,5.7,0.1c37.4,0,60.5-12.5,67.1-37
			c8.1,26.4,22.7,34.8,56.8,34.8c13.2,0,23.2-0.9,33.7-3.5l-2.7-15.3c19.7,17.9,49.2,21.1,85.5,21.1
			C1595.8,735.5,1635.6,712.6,1628.5,670.1z M1317.9,683.5c-18.3,0-27.3-7.9-29.4-19.8c-2.3-13.2,8.2-19.8,34.4-19.8
			c9.9,0,18.2,1.1,26.5,2.9l3.7,21.1C1347.5,677.8,1335.3,683.5,1317.9,683.5z"/>
		<path class="st1" d="M1782.9,654.9c-0.8,18-13.1,26-36.9,26c-22.9,0-38.9-12.3-47.9-39.2h144.6c-0.3-7.9-1.1-14.3-2.2-20.5
			c-11.7-67.8-59.3-110.5-124.5-110.5c-67.1,0-101.3,48-89.9,113.8c11.5,66.9,59.5,112.9,129.7,112.9c53.2,0,87.4-25.3,87.8-75
			L1782.9,654.9z M1725.7,566.7c19.8,0,36.8,10.8,42.6,35.2h-76.6C1692.6,577.7,1705,566.7,1725.7,566.7z"/>
		<path class="st1" d="M329.7,626.3c0,25.8-20.9,46.6-46.6,46.6s-46.6-20.9-46.6-46.6h-82.4l-12.5-46.8l-33.6-125.5l-12.6-47v-0.1
			h141.5v0.4c25.7,0,46.6,20.9,46.6,46.6s-20.9,46.6-46.6,46.6c-17.2,0-32.2-9.3-40.2-23.1c0,0,0,0,0,0c-4-6.9-6.3-14.9-6.3-23.5
			h-33.7l27.8,103.7l1.4,5.2l4.4,16.3h92.9v0.4C308.8,579.7,329.7,600.6,329.7,626.3z"/>
		<path class="st1" d="M1027.3,641.7l-36.8-213.4l-5.5-31.7c15.8,7.2,33.4,11.3,51.9,11.3c6.8,0,13.4-0.5,19.9-1.6l-7.8-42.8
			c-3.9,0.6-8,0.9-12.1,0.9c-25.5,0-48.3-11.8-63.2-30.1c-0.7-0.9-1.5-1.8-2.2-2.8h-67.8l36.6,211.8c-15.8-19.8-37.4-30.4-66.4-30.4
			c-40.7,0-68.2,22.8-76,61.4c-11.8-36.1-39.2-61.4-87.1-61.4c-37.8,0-56.6,18.5-60.5,49.7l-8.8-45.8h-60.3l27.8,160.8
			c-0.7,0-1.4,0-2.1,0c-10.3,0-13.4-4.8-14.9-13.9l-10.1-58.5c-9.3-53.7-35-92-116.7-92c-44.8,0-76.5,16.6-84.7,48.6
			c-11.7-17.6-28.1-31.8-47.3-40.8c13.3-18.9,21-41.9,21-66.8c0-26.6-8.9-51.1-23.9-70.7c-21.3-27.8-54.8-45.8-92.5-45.8H89l-12.6,0
			L89,383.5v0h148.7c39,0,70.7,31.6,70.7,70.7c0,22.6-10.7,42.7-27.2,55.7c0,0,0,0,0,0h0c-3.3,2.5-6.8,4.8-10.5,6.8l-33.8-0.1h-1.2
			l-28.6-0.1l7.7,28.6c0,0.2,0.1,0.3,0.1,0.4c0.1,0.5,0.2,0.9,0.4,1.4c0,0.1,0.1,0.2,0.1,0.3l2.8,10.3l1.4,5.2l0.2,0.6l15.7,0.1h1.6
			l14.4,0.1l64.8,0.2c22.6,11.7,38.1,35.4,38.1,62.7c0,37.8-29.7,68.7-67,70.6c-1.2,0.1-2.4,0.1-3.6,0.1c-1.2,0-2.4,0-3.6-0.1h-94.2
			l-12.3,0l12.3,45.9h97.8c37.8,0,71.3-18,92.6-45.9c3.5-4.6,6.7-9.4,9.5-14.5l1.3-3.2l1.1,3.2c10.3,32.9,39.4,57.5,83.1,57.5
			c37.4,0,60.6-12.5,67.1-37c8.1,26.4,22.4,32.6,56.5,32.6c10.7,0,19.2,1.1,27.7,0h66.5l-17.6-101.9c-6.7-38.7,5.8-55.5,29.8-55.5
			c20.2,0,30.8,11.5,35,35.7l21,121.7h70l-9.4-54.2c0,0,0,0,0,0c21.3,36.7,55.8,58.1,95.3,58.1c35.9,0,58.1-17.5,63.7-47.4l8.7,43.4
			h58.1l-14.6-84.6L1027.3,641.7z M399.9,626.2c0-10.8-1.5-21.2-4.3-31.2l52.9,4.4c-2.9-20.7,6.3-29.9,26.3-29.9
			c25.3,0,34.7,14.8,38.1,34.8l1.2,7c-11.6-2-23.2-3.1-38-3.1C442.4,608.3,415.7,613.6,399.9,626.2z M489.5,687.9
			c-18.3,0-27.3-7.9-29.4-19.8c-2.3-13.2,8.2-19.8,34.4-19.8c9.9,0,18.2,1.1,26.5,2.9l3.6,21.1C519.1,682.2,506.9,687.9,489.5,687.9
			z M798,575.2l-0.2-1.1c0.1,0.4,0.2,0.7,0.4,1.1H798z M919.8,677.8c-26.4,0-46-19.4-51.7-51.9c-5.6-32.1,7.5-50.6,33.9-50.6
			c26.6,0,48.8,18.9,54.3,50.6C961.9,657.8,946.6,677.8,919.8,677.8z"/>
	</g>
	<path class="st2" d="M944.4,331.3h-1.7c0.7,0.9,1.4,1.9,2.2,2.8L944.4,331.3L944.4,331.3z"/>
	<path class="st2" d="M944.4,331.3h-1.7c0.7,0.9,1.4,1.9,2.2,2.8L944.4,331.3L944.4,331.3z"/>
</g>
</svg>
